# xmcd CD Database Entry
#
# Track frame offsets:
# 150
# 16945
# 43302
# 67507
# 89680
# 113690
# 132562
# 157700
# 182450
# 201335
# 225485
# 246240
# 269712
# 286477
# 303652
#
# Disc length: 4329 seconds
#
# Revision: 1
# Processed by: cddbd v1.4PL0 Copyright (c) Steve Scherf et al.
# Submitted via: tcd 2.0b
#
DISCID=d110e70f
DTITLE=Blossom - in love ...
DYEAR=1900
DGENRE=
TTITLE0=Just A Dream
TTITLE1=Butterflies
TTITLE2=Key To Paradise
TTITLE3=He Loves Me
TTITLE4=Neverland
TTITLE5=Give Me More Time
TTITLE6=Icicles
TTITLE7=Time Machine
TTITLE8=Rollercoaster
TTITLE9=Angel Of Love
TTITLE10=S.O.S.
TTITLE11=Bad Boys In Love
TTITLE12=Nur Geträumt
TTITLE13=Give Me More Time -Drum'n'Bass Mix-
TTITLE14=Verrückte Jungs -Ultra-Sonic Remix-
EXTD=
EXTT0=
EXTT1=
EXTT2=
EXTT3=
EXTT4=
EXTT5=
EXTT6=
EXTT7=
EXTT8=
EXTT9=
EXTT10=
EXTT11=
EXTT12=
EXTT13=
EXTT14=
PLAYORDER=
